My Little Pony:Friendship is Magic - S2-E01 - The Return of Harmony (Part 1) (720p)

-----------------------------------------------------------------------------

General
Format                           : MPEG-4
Format profile                   : Base Media
Codec ID                         : isom
File size                        : 282 MiB
Duration                         : 21mn 55s
Overall bit rate                 : 1 798 Kbps
Writing application              : Lavf52.108.0

Video
ID                               : 1
Format                           : AVC
Format/Info                      : Advanced Video Codec
Format profile                   : High@L3.1
Format settings, CABAC           : Yes
Format settings, ReFrames        : 1 frame
Format settings, GOP             : M=1, N=30
Codec ID                         : avc1
Codec ID/Info                    : Advanced Video Coding
Duration                         : 21mn 55s
Bit rate                         : 1 639 Kbps
Width                            : 1 280 pixels
Height                           : 720 pixels
Display aspect ratio             : 16:9
Frame rate mode                  : Constant
Frame rate                       : 30.000 fps
Color space                      : YUV
Chroma subsampling               : 4:2:0
Bit depth                        : 8 bits
Scan type                        : Progressive
Bits/(Pixel*Frame)               : 0.059
Stream size                      : 257 MiB (91%)

Audio
ID                               : 2
Format                           : AAC
Format/Info                      : Advanced Audio Codec
Format profile                   : LC
Codec ID                         : 40
Duration                         : 21mn 55s
Bit rate mode                    : Constant
Bit rate                         : 152 Kbps
Channel(s)                       : 2 channels
Channel positions                : Front: L R
Sampling rate                    : 44.1 KHz
Compression mode                 : Lossy
Stream size                      : 23.8 MiB (8%)

-----------------------------------------------------------------------------

I will be uploading ALL MLP:FiM Season 2 episodes here as soon as possible after they are aired.

Have fun everypony, stay tuned for more MLP:FiM Season 2 episodes and be sure to seed :D

TorrentGuy96

